<svg viewBox="0 0 64 64" xmlns="http://www.w3.org/2000/svg" xmlns:svg="http://www.w3.org/2000/svg" >
<path fill="#32021f" d="m 60.606492,29.227444 c 0.510759,-0.961664 0.838779,-1.666052 0.806955,-1.855973 -0.04193,-0.26069 -0.524504,0.39367 -1.174112,1.384562 -0.408626,-0.520278 -0.843484,-1.067324 -1.28207,-1.616658 0.232503,-0.613959 0.45289,-1.204678 0.648304,-1.744767 1.388256,1.157133 2.558501,2.098813 2.506456,1.785975 -0.04193,-0.274716 -1.008146,-1.245359 -2.27428,-2.441054 0.349917,-1.010358 0.561033,-1.744944 0.498691,-1.932133 -0.07968,-0.23828 -0.45056,0.466299 -0.930288,1.525787 -0.48928,-0.45741 -1.009497,-0.938065 -1.533116,-1.420924 0.133258,-0.649799 0.258595,-1.272741 0.366226,-1.838276 1.54085,0.924068 2.834895,1.664822 2.730478,1.351546 -0.08434,-0.25333 -1.177094,-1.049628 -2.606213,-2.025821 0.180317,-1.010708 0.27397,-1.736049 0.19709,-1.903693 -0.116017,-0.213072 -0.36343,0.507246 -0.662886,1.58716 -0.558052,-0.377734 -1.152214,-0.77474 -1.750242,-1.173334 0.03261,-0.663884 0.05545,-1.299416 0.07082,-1.873319 1.67285,0.674895 3.070098,1.202832 2.913172,0.888587 -0.126735,-0.232176 -1.333555,-0.845796 -2.899846,-1.583111 0.0093,-0.98949 -0.0233,-1.691674 -0.142111,-1.840741 -0.133257,-0.189822 -0.255332,0.52477 -0.374612,1.598869 -0.617831,-0.287482 -1.275127,-0.588426 -1.935126,-0.889729 -0.07548,-0.658073 -0.151895,-1.286737 -0.22691,-1.85025 1.787237,0.399726 3.291511,0.709406 3.106162,0.444643 -0.171931,-0.236788 -1.503855,-0.670226 -3.20769,-1.164267 -0.139314,-0.928559 -0.275834,-1.573158 -0.406297,-1.688678 -0.147235,-0.165967 -0.15469,0.511911 -0.108096,1.540935 -0.669783,-0.191081 -1.381733,-0.388917 -2.094103,-0.586228 -0.175658,-0.636151 -0.347123,-1.240777 -0.506938,-1.77946 1.869289,0.113129 3.459201,0.179991 3.216682,-0.06267 C 53.355503,9.8670997 51.931369,9.6549123 50.126986,9.4406004 49.858141,8.5889952 49.63561,8.0074326 49.495876,7.9097025 49.314627,7.7647032 49.398029,8.4033896 49.593722,9.3785238 48.899385,9.2988487 48.164277,9.2191737 47.430382,9.1400111 47.165729,8.5577449 46.910164,8.0047161 46.675006,7.5110291 48.563631,7.3285685 50.175443,7.1496025 49.87538,6.9586992 49.654527,6.7819697 48.193911,6.7898905 46.358636,6.8590354 45.96259,6.0613204 45.654001,5.5200845 45.500987,5.4367053 45.302499,5.3284217 45.487009,5.947208 45.831802,6.8800818 45.132385,6.9094358 44.394622,6.9453128 43.658536,6.9820286 43.302561,6.443346 42.962055,5.9338963 42.65123,5.4817706 44.511992,4.9956549 46.120728,4.5593757 45.818103,4.4220178 45.571157,4.2876418 44.093208,4.5424622 42.254392,4.9131516 41.743632,4.195736 41.356766,3.7171918 41.1908,3.661983 40.976003,3.5902292 41.25324,4.1688795 41.733335,5.0191614 41.039883,5.1616446 40.310739,5.3157296 39.584159,5.4692555 39.141985,4.9891318 38.723062,4.5406125 38.340855,4.140872 40.141326,3.348259 41.716189,2.6322504 41.380808,2.5199879 41.106372,2.4288508 39.636204,2.9396098 37.834802,3.6201513 37.237239,3.0166663 36.788823,2.6106776 36.626723,2.5835602 36.416587,2.548615 36.76697,3.059197 37.353304,3.8028541 36.697686,4.0531083 36.011082,4.3192557 35.328766,4.5837535 34.831752,4.1864965 34.36274,3.8166784 33.934545,3.486847 35.610377,2.4079909 37.091448,1.4356709 36.752713,1.3799357 36.476879,1.333808 35.083729,2.0936564 33.388096,3.0730212 32.685231,2.5495702 32.163709,2.2036313 31.997743,2.2036313 c -0.232969,0 0.210136,0.470176 0.932058,1.1350294 C 32.32236,3.69198 31.69167,4.0621568 31.060885,4.4323988 30.50973,4.1229242 29.989092,3.8346403 29.51188,3.5774483 c 1.499988,-1.3545365 2.827673,-2.57753001 2.485863,-2.57753001 -0.301927,0 -1.595878,0.98323671 -3.147492,2.22798011 -0.792324,-0.4101169 -1.374837,-0.6722524 -1.542574,-0.6441658 -0.21666,0.036343 0.296336,0.431876 1.122067,0.9832367 C 27.890657,4.0026195 27.333909,4.4561709 26.777955,4.9099739 26.20229,4.6953172 25.649877,4.4928681 25.14853,4.3159102 26.438288,2.7431013 27.586261,1.3227047 27.243565,1.3800242 26.941638,1.425686 25.821855,2.6058366 24.486062,4.0879557 23.574598,3.7821619 22.917768,3.6033356 22.74225,3.6620435 c -0.205012,0.074317 0.414217,0.4067156 1.368454,0.8442994 -0.453822,0.5071574 -0.921761,1.0338654 -1.389934,1.5615379 -0.61564,-0.1262687 -1.205097,-0.243964 -1.741575,-0.3447927 1.021099,-1.750843 1.913971,-3.3161689 1.573512,-3.2030256 -0.277698,0.092815 -1.188323,1.4179317 -2.269108,3.0773814 -0.982799,-0.169694 -1.687015,-0.250394 -1.85121,-0.1607946 -0.209672,0.1142942 0.484107,0.3552763 1.535305,0.6478562 -0.369953,0.5723184 -0.753279,1.1711347 -1.1346,1.7659019 -0.602363,-0.02749 -1.178865,-0.050554 -1.70938,-0.06593 0.734315,-1.869447 1.365006,-3.5314454 1.054646,-3.3623944 -0.2763,0.1150862 -0.981494,1.5489483 -1.799258,3.3458398 -1.043464,-0.014444 -1.786772,0.018638 -1.940671,0.1416911 -0.195692,0.1369386 0.569235,0.2615765 1.702485,0.383605 -0.27863,0.6190706 -0.566253,1.2671922 -0.852104,1.9118851 -0.608792,0.06956 -1.192657,0.139222 -1.728343,0.208506 0.4254,-1.9544106 0.778206,-3.6796272 0.497387,-3.4551066 -0.228775,0.1600956 -0.68912,1.6664946 -1.209757,3.5513456 -1.064058,0.151802 -1.819014,0.300668 -1.960053,0.441847 -0.180317,0.160142 0.632881,0.155948 1.812538,0.09528 -0.178453,0.653671 -0.361101,1.338336 -0.543421,2.020974 -0.590714,0.162379 -1.159948,0.321449 -1.68189,0.472557 0.127667,-1.987781 0.219457,-3.7267378 -0.03261,-3.476242 -0.203614,0.203755 -0.423069,1.749083 -0.6444361,3.675937 -1.0791077,0.326388 -1.8417984,0.599609 -1.9548345,0.761 -0.1421105,0.203754 0.6977857,0.07353 1.888625,-0.175378 -0.074089,0.664065 -0.1477067,1.358151 -0.2213246,2.050914 -0.5687681,0.258361 -1.1169884,0.509981 -1.6177764,0.745684 -0.1845106,-1.944021 -0.3652938,-3.620462 -0.5571663,-3.317753 -0.1784534,0.223277 -0.1682028,1.735522 -0.096915,3.63006 -1.0145757,0.492896 -1.7240098,0.883215 -1.8048031,1.061249 -0.1230071,0.224768 0.6874419,-0.04007 1.8280533,-0.476871 0.027956,0.659835 0.061038,1.351102 0.094585,2.0429 -0.5266009,0.34442 -1.0348438,0.679647 -1.4986832,0.9916 C 5.3880907,19.202127 4.9624582,17.628876 4.800359,17.924983 4.69133,18.187444 4.9354804,19.631361 5.2901044,21.439789 4.3326525,22.098833 3.6624501,22.609512 3.59666,22.807182 3.53469,23.05478 4.3258032,22.65263 5.4071009,22.029362 5.5347673,22.669385 5.6722184,23.340664 5.8101356,24.012916 5.3397732,24.442835 4.8853925,24.861791 4.4730391,25.250172 3.741706,23.537718 3.105051,22.106754 3.0255157,22.425314 c -0.086198,0.258408 0.3536455,1.597904 0.9643011,3.285706 -0.8482364,0.816647 -1.4385308,1.444607 -1.4716122,1.660149 -0.041934,0.251047 0.6891194,-0.291536 1.677556,-1.093822 0.225513,0.613782 0.4664951,1.260324 0.7089682,1.908711 -0.4100237,0.510065 -0.80565,1.005602 -1.1629297,1.462135 -0.9720357,-1.544899 -1.8048031,-2.80848 -1.857314,-2.467909 -0.041934,0.255007 0.5838644,1.477451 1.4321475,3.017332 -0.7012337,0.916319 -1.1784453,1.603709 -1.1784453,1.801206 0,0.247505 0.6216983,-0.376942 1.4578671,-1.296425 0.3261551,0.585696 0.6750015,1.204146 1.026224,1.825155 -0.3228933,0.565446 -0.6324613,1.112403 -0.9110443,1.615778 -1.1943804,-1.369069 -2.2068127,-2.483672 -2.2068127,-2.144158 0,0.274622 0.801736,1.386765 1.8654679,2.769653 -0.5343819,0.993273 -0.8839272,1.727332 -0.8516844,1.921744 0.041934,0.24443 0.5408586,-0.443571 1.2063549,-1.461869 0.4123533,0.530668 0.8512184,1.089246 1.294044,1.650997 -0.2311042,0.612818 -0.4514919,1.203447 -0.6475112,1.744502 -1.3775398,-1.154226 -2.5391648,-2.082963 -2.4866538,-1.744502 0.041934,0.252678 0.9978485,1.208112 2.2544779,2.393066 -0.363896,1.036596 -0.5902944,1.791524 -0.5425825,1.981886 0.080141,0.220668 0.4580151,-0.516051 0.9471547,-1.601514 0.4965946,0.464212 1.024966,0.952685 1.5584628,1.444872 -0.13186,0.640377 -0.2557989,1.255482 -0.3620323,1.816703 -1.5339546,-0.919577 -2.8185867,-1.654162 -2.7145432,-1.341942 0.063368,0.253842 1.1538905,1.053323 2.5881813,2.032422 -0.1831128,1.041082 -0.2725726,1.790023 -0.1798513,1.960747 0.098313,0.216707 0.3443268,-0.530226 0.647884,-1.642364 0.5580516,0.377129 1.1530984,0.773416 1.7515467,1.17113 -0.032616,0.669522 -0.060106,1.310687 -0.079209,1.890401 -1.6780219,-0.669522 -3.0846826,-1.199395 -2.9540342,-0.912005 0.1276665,0.254541 1.3517269,0.879338 2.9346512,1.623083 -0.018637,1.001814 0.00345,1.712893 0.1080972,1.862663 0.1341896,0.1915 0.262322,-0.537797 0.3895225,-1.630217 0.6203938,0.287903 1.279833,0.588781 1.9424404,0.889994 0.07175,0.657813 0.143975,1.286743 0.215729,1.851308 -1.7781058,-0.40131 -3.2661656,-0.703153 -3.0554227,-0.412866 0.1495654,0.213259 1.4604297,0.628669 3.1495407,1.10959 0.135588,0.947662 0.269778,1.612078 0.401171,1.74336 0.166806,0.147935 0.186841,-0.547312 0.14677,-1.58866 0.660371,0.184883 1.361605,0.376849 2.06405,0.569057 0.175192,0.640727 0.344792,1.251169 0.503444,1.796099 -1.843103,-0.118954 -3.397699,-0.192804 -3.157742,0.0472 0.194296,0.194854 1.585581,0.40434 3.355951,0.615814 0.270243,0.879426 0.495709,1.48881 0.638007,1.602568 0.183112,0.128133 0.09598,-0.538683 -0.102972,-1.539792 0.68828,0.07935 1.418309,0.158838 2.147498,0.23772 0.272573,0.599702 0.535267,1.168493 0.776856,1.673451 -1.873156,0.181575 -3.472435,0.363197 -3.201633,0.57962 0.220388,0.154365 1.677183,0.132093 3.511666,0.05619 0.39791,0.796485 0.708968,1.33226 0.862868,1.401992 0.197556,0.107678 0.01864,-0.50302 -0.322894,-1.425415 0.702911,-0.03168 1.444961,-0.06849 2.185706,-0.105114 0.356907,0.540881 0.698251,1.052442 1.009077,1.505452 -1.858991,0.488049 -3.455289,0.938065 -3.126012,1.10342 0.246015,0.134004 1.715391,-0.126501 3.542978,-0.505484 0.497852,0.699458 0.870648,1.161094 1.021099,1.201948 0.210602,0.07045 -0.04753,-0.486554 -0.50433,-1.310073 0.681851,-0.144067 1.39902,-0.299877 2.113067,-0.455406 0.428661,0.469118 0.834864,0.907779 1.207659,1.301793 -1.786305,0.786537 -3.339643,1.494005 -3.006033,1.605563 0.271642,0.09025 1.723545,-0.409696 3.511621,-1.080179 0.614429,0.627877 1.077383,1.052443 1.243349,1.080179 0.214797,0.03588 -0.149565,-0.496594 -0.752392,-1.265342 0.663819,-0.251558 1.359834,-0.519663 2.052075,-0.786448 0.499157,0.393389 0.97115,0.759857 1.403678,1.087131 -1.671079,1.077537 -3.133745,2.048184 -2.767473,2.104712 0.275834,0.04613 1.665069,-0.702893 3.354274,-1.669048 0.699463,0.509538 1.222289,0.845353 1.399811,0.845353 0.213864,0 -0.225048,-0.459693 -0.935087,-1.112315 0.595932,-0.343395 1.213251,-0.702893 1.831501,-1.063011 0.544773,0.309429 1.059305,0.597233 1.531019,0.854602 -1.487967,1.330849 -2.794078,2.526197 -2.42734,2.526197 0.2763,0 1.533116,-0.963602 3.056353,-2.189675 0.80826,0.424235 1.402841,0.696197 1.572628,0.667756 0.21899,-0.03681 -0.310779,-0.442452 -1.155195,-1.00481 0.55027,-0.445807 1.121181,-0.911826 1.692652,-1.377865 0.584703,0.216846 1.145737,0.421672 1.65342,0.599869 -1.277735,1.567702 -2.405813,2.980178 -2.064888,2.923035 0.279096,-0.04669 1.395106,-1.220705 2.731689,-2.694544 0.892128,0.297406 1.533536,0.470352 1.706398,0.412493 0.224115,-0.05573 -0.391386,-0.37657 -1.348652,-0.80846 0.465004,-0.516052 0.945385,-1.052968 1.425578,-1.590067 0.597144,0.122821 1.168521,0.237487 1.689997,0.335893 -1.02273,1.748024 -1.918306,3.317837 -1.576915,3.204521 0.277232,-0.09272 1.196058,-1.417228 2.284159,-3.076235 0.975017,0.168855 1.672383,0.248996 1.83616,0.159629 0.210137,-0.09528 -0.484993,-0.329043 -1.536098,-0.618893 0.374613,-0.575216 0.76311,-1.177909 1.1483,-1.776814 0.620859,0.02982 1.215021,0.05545 1.757976,0.07381 -0.730448,1.888019 -1.364121,3.569568 -1.053295,3.400162 0.253003,-0.138522 0.948786,-1.580379 1.762729,-3.380351 1.029207,0.02143 1.762264,-3.54e-4 1.915323,-0.107165 0.19383,-0.15539 -0.558936,-0.292748 -1.676716,-0.423257 0.279561,-0.623203 0.567928,-1.275201 0.854246,-1.923416 0.607069,-0.06691 1.189162,-0.13349 1.722286,-0.199001 -0.434718,1.958637 -0.80141,3.693367 -0.520171,3.496751 0.251605,-0.182786 0.717169,-1.700568 1.239017,-3.588764 1.058886,-0.142624 1.805269,-0.279469 1.930373,-0.40448 0.178919,-0.178732 -0.618204,-0.189588 -1.781553,-0.137683 0.177056,-0.649534 0.358771,-1.328566 0.538669,-2.005128 0.597562,-0.162006 1.17155,-0.320331 1.696845,-0.47053 -0.118347,1.968412 -0.195226,3.686234 0.05358,3.437144 0.203149,-0.203054 0.421672,-1.730239 0.642339,-3.640185 1.047657,-0.313715 1.782857,-0.575925 1.894263,-0.734762 0.161214,-0.201565 -0.656504,-0.07483 -1.829731,0.168435 0.07502,-0.668287 0.149566,-1.368184 0.22365,-2.067376 0.560614,-0.25305 1.101473,-0.499503 1.596296,-0.730802 0.178454,1.93451 0.361567,3.600385 0.579532,3.327966 0.155156,-0.244429 0.131859,-1.748466 0.05498,-3.628388 1.025759,-0.493161 1.749357,-0.884449 1.846551,-1.062921 0.102972,-0.226305 -0.721362,0.04147 -1.871431,0.478982 -0.02796,-0.669783 -0.0643,-1.371972 -0.09785,-2.073979 0.521941,-0.342696 1.025758,-0.676036 1.485823,-0.98579 0.46547,1.847343 0.892547,3.41196 1.054646,3.088033 0.131395,-0.241262 -0.108097,-1.679522 -0.465004,-3.489274 0.944592,-0.650497 1.604031,-1.14903 1.669822,-1.329264 0.08247,-0.247785 -0.701653,0.148028 -1.782905,0.762499 -0.131859,-0.654462 -0.274902,-1.342738 -0.417944,-2.032156 0.476792,-0.433833 0.935925,-0.854513 1.352519,-1.243597 0.732964,1.715358 1.375303,3.150287 1.48149,2.831284 0.0862,-0.25976 -0.358305,-1.611021 -0.973387,-3.310974 0.819907,-0.783187 1.384855,-1.37646 1.417051,-1.57122 0.04193,-0.246387 -0.657809,0.260691 -1.614794,1.028754 -0.231104,-0.629279 -0.478564,-1.292902 -0.727,-1.957668 0.406762,-0.507777 0.797543,-0.998645 1.150396,-1.450953 0.985827,1.576952 1.836626,2.88755 1.889976,2.569078 0.04193,-0.279188 -0.604879,-1.542694 -1.469888,-3.112773 0.687861,-0.901088 1.152679,-1.573164 1.152679,-1.767836 0,-0.245223 -0.607488,0.361427 -1.429491,1.265957 -0.320099,-0.574601 -0.661677,-1.179936 -1.004699,-1.786235 0.325689,-0.575221 0.635864,-1.128344 0.913561,-1.636735 1.19904,1.375051 2.217949,2.497496 2.217949,2.157013 -9.3e-5,-0.27453 -0.810915,-1.388616 -1.885737,-2.771327 z m -1.490576,-4.241555 c -0.211534,0.481889 -0.435184,1.003929 -0.6586,1.526318 -0.362498,-0.454241 -0.717168,-0.899415 -1.054646,-1.326274 0.09505,-0.459972 0.191965,-0.926093 0.287482,-1.38826 0.463607,0.383279 0.947947,0.788652 1.425578,1.188216 z m -5.427362,22.24103 c -0.335007,0.131441 -0.660371,0.25771 -0.966864,0.373075 0.15143,-0.525999 0.292143,-0.992303 0.417945,-1.363603 0.185909,-0.123986 0.376942,-0.25058 0.573568,-0.38039 0.0093,0.342416 0,0.816828 -0.0233,1.370914 z m -16.803516,11.02085 c -0.313109,-0.134702 -0.619508,-0.267913 -0.911836,-0.397024 0.561033,-0.311339 1.037359,-0.56307 1.389933,-0.72728 0.167738,0.03401 0.33827,0.06919 0.511645,0.105022 -0.184977,0.237301 -0.540533,0.595471 -0.989742,1.019249 z M 5.8702883,36.613652 c 0.1593501,-0.364688 0.3149726,-0.715747 0.4626744,-1.040295 0.2506736,0.456431 0.4754411,0.875205 0.6603711,1.235323 -0.053117,0.266981 -0.1085631,0.543434 -0.167271,0.82827 C 6.5581495,37.370342 6.2318546,37.017442 5.8702883,36.613652 Z M 10.279581,16.821507 c 0.33361,-0.132513 0.657388,-0.260086 0.961784,-0.377176 -0.144905,0.511738 -0.279561,0.967036 -0.397909,1.334991 -0.188238,0.125896 -0.381602,0.254634 -0.581628,0.386354 -0.01398,-0.341345 -0.0044,-0.804854 0.01864,-1.344151 z M 27.078437,5.8013654 c 0.315904,0.1361932 0.625146,0.2702895 0.919572,0.3997265 C 27.48259,6.487596 27.033287,6.7266537 26.686352,6.8924478 26.502307,6.8551729 26.315001,6.81664 26.124899,6.7774548 26.322456,6.5389421 26.656718,6.2016184 27.078437,5.8013468 Z M 55.933248,23.28039 c 0.0093,-0.270755 0.0233,-0.550125 0.03728,-0.838223 0.303325,0.217406 0.676307,0.507511 1.092434,0.844122 -0.09878,0.382068 -0.196625,0.752813 -0.29121,1.097349 -0.315439,-0.405271 -0.603154,-0.781258 -0.839989,-1.103248 z m -1.669403,-3.772524 c -0.03261,-0.264047 -0.06337,-0.53648 -0.09505,-0.816032 0.33361,0.168855 0.759243,0.407601 1.235569,0.685546 -0.03727,0.393576 -0.07362,0.776496 -0.111359,1.134941 -0.387658,-0.369208 -0.742096,-0.712132 -1.029205,-1.004455 z m -2.287233,-3.451324 c -0.06849,-0.244849 -0.137917,-0.498351 -0.208273,-0.755981 0.358305,0.11094 0.833653,0.285525 1.37055,0.494125 0.0233,0.391294 0.04659,0.772713 0.06337,1.133008 -0.469478,-0.323686 -0.886444,-0.61854 -1.225273,-0.871152 z M 49.214777,13.074608 C 49.112736,12.853242 49.0079,12.62414 48.902134,12.391615 c 0.366225,0.04711 0.859418,0.138663 1.417051,0.25333 0.08433,0.373587 0.165872,0.738284 0.240422,1.084228 -0.514998,-0.242659 -0.972082,-0.463932 -1.344784,-0.654551 z M 45.950848,10.47612 c -0.123473,-0.186141 -0.24881,-0.376244 -0.376476,-0.5701985 0.355975,-0.013512 0.86459,-0.00123 1.458706,0.026092 0.137916,0.3466565 0.272572,0.6872145 0.398375,1.0120275 -0.576969,-0.170813 -1.08386,-0.329044 -1.480605,-0.467716 z M 42.38243,8.5236477 C 42.24032,8.3694695 42.09588,8.2129151 41.949111,8.0526796 42.29204,7.9790618 42.80126,7.9077269 43.401387,7.8382093 43.586829,8.1484294 43.768544,8.4543724 43.940101,8.7467798 43.328328,8.67046 42.796088,8.5958631 42.382524,8.5236431 Z m -3.840943,-1.35401 C 38.38866,7.0473295 38.233038,6.923111 38.075411,6.7962366 38.37827,6.6661007 38.859163,6.510711 39.441349,6.3419025 c 0.226912,0.2737373 0.45056,0.5444042 0.661677,0.8035299 -0.62128,0.021433 -1.156966,0.031684 -1.561539,0.024229 z M 34.596128,6.4322334 c -0.171931,-0.096402 -0.345724,-0.1939692 -0.5232,-0.2943317 0.272107,-0.1733748 0.723599,-0.4021028 1.276898,-0.661946 0.272573,0.2380002 0.540858,0.4732605 0.793628,0.6983961 -0.614476,0.1164841 -1.146295,0.2075279 -1.547326,0.2578956 z M 30.552223,6.3359245 C 30.38402,6.2727901 30.213488,6.2085841 30.040206,6.1430736 c 0.218989,-0.2046391 0.614429,-0.496152 1.110465,-0.8365462 0.291676,0.1844641 0.577807,0.3668314 0.850846,0.5426384 -0.581768,0.2109758 -1.08004,0.3809027 -1.449294,0.4867354 z m -7.754154,1.7099012 c -0.17193,-0.00792 -0.347122,-0.016308 -0.524504,-0.024695 0.143974,-0.259107 0.430525,-0.6565737 0.795772,-1.1303653 0.325223,0.083496 0.643644,0.1661527 0.947154,0.2470858 -0.487974,0.3820208 -0.903635,0.6943471 -1.218422,0.9081325 z m -3.468148,1.7062017 c -0.19942,0.023297 -0.403967,0.04692 -0.611774,0.070636 0.118348,-0.2954966 0.33361,-0.7205887 0.613079,-1.2310029 0.355043,0.032616 0.700814,0.065837 1.029205,0.099431 -0.398375,0.4287077 -0.74806,0.7914668 -1.03051,1.0609828 z m -3.257964,2.2476986 c -0.187306,0.05223 -0.377874,0.104976 -0.573101,0.158652 0.08154,-0.31353 0.238559,-0.772187 0.437047,-1.311131 0.339667,-0.0205 0.67025,-0.03867 0.983685,-0.05382 -0.324757,0.482948 -0.61266,0.895982 -0.847818,1.206267 z m -2.8526,2.697099 c -0.186375,0.08592 -0.375544,0.173094 -0.570912,0.262135 0.03728,-0.326761 0.117416,-0.78944 0.224582,-1.332879 0.336406,-0.07539 0.664657,-0.147842 0.974598,-0.214145 -0.235763,0.50487 -0.447765,0.943176 -0.628128,1.284889 z M 8.9506843,21.148044 C 8.771299,21.314104 8.5830608,21.487292 8.3913281,21.662778 8.3307563,21.323949 8.2715826,20.875099 8.2133406,20.363361 8.5329727,20.172747 8.8405836,19.991963 9.1312345,19.823887 9.0697307,20.325322 9.0096253,20.77208 8.9504513,21.148044 Z M 7.5512455,24.896266 C 7.3937592,25.095779 7.2264881,25.305171 7.0573068,25.517009 6.9417547,25.178087 6.8122244,24.734348 6.6747733,24.229036 c 0.2935397,-0.24224 0.5765492,-0.472557 0.843484,-0.685806 0.018637,0.50698 0.032616,0.964217 0.032616,1.353036 z M 6.740843,28.824283 C 6.6169041,29.044998 6.4859761,29.276055 6.3531843,29.510532 6.1863792,29.185635 5.9874246,28.756485 5.7697859,28.266148 c 0.254401,-0.284593 0.4999959,-0.555853 0.7317525,-0.807318 0.096449,0.510503 0.1784534,0.973638 0.239491,1.365453 z m -0.1747259,3.946595 c -0.094585,0.25948 -0.1947613,0.530757 -0.2981991,0.808287 -0.218524,-0.301927 -0.4797743,-0.69356 -0.7669772,-1.138203 0.2157283,-0.338363 0.4249337,-0.662915 0.6216984,-0.961403 0.1700667,0.476169 0.3210298,0.913417 0.4435711,1.291319 z m 1.4759454,8.026409 c -0.00932,0.265118 -0.023297,0.537974 -0.032616,0.819026 C 7.707054,41.394622 7.329739,41.094452 6.9079738,40.747982 c 0.097381,-0.378713 0.1938294,-0.746476 0.2860847,-1.089074 0.3196321,0.417711 0.6135445,0.808287 0.8500071,1.138379 z m 1.67285,3.696802 c 0.027956,0.258874 0.058708,0.525384 0.088528,0.799214 -0.335474,-0.170811 -0.7579381,-0.408299 -1.2321677,-0.685103 0.037275,-0.384676 0.07688,-0.759065 0.116018,-1.109766 0.3853291,0.365341 0.7398597,0.706503 1.0275286,0.995655 z m 2.2462775,3.40615 c 0.07129,0.254728 0.143974,0.517902 0.218058,0.787334 -0.356907,-0.110054 -0.817671,-0.276719 -1.337889,-0.475641 -0.0233,-0.397816 -0.04846,-0.785126 -0.06803,-1.149208 0.450561,0.308776 0.85462,0.592302 1.187765,0.837515 z m 2.773438,3.060128 c 0.103437,0.228028 0.20967,0.463933 0.317768,0.70333 -0.364828,-0.05009 -0.858115,-0.145185 -1.417051,-0.263533 -0.08387,-0.378713 -0.16401,-0.748852 -0.237628,-1.099903 0.512996,0.243452 0.967377,0.466393 1.337097,0.660101 z m 3.245989,2.540809 c 0.132325,0.199887 0.267913,0.405132 0.405831,0.614579 -0.36343,0.01538 -0.874935,0.0034 -1.468631,-0.02423 -0.142576,-0.360541 -0.280959,-0.713987 -0.410023,-1.049801 0.570118,0.167038 1.072724,0.322056 1.472963,0.459273 z m 3.550292,1.965244 c 0.151896,0.165453 0.304256,0.332445 0.461743,0.505307 -0.335008,0.07632 -0.828434,0.148448 -1.411879,0.217919 -0.190568,-0.321309 -0.376476,-0.637298 -0.552041,-0.938773 0.586847,0.07362 1.100168,0.145698 1.502177,0.215547 z m 3.858137,1.401643 c 0.161214,0.127387 0.324758,0.256823 0.491376,0.389243 -0.315439,0.123287 -0.803506,0.272152 -1.384389,0.434951 -0.228774,-0.277419 -0.454288,-0.551538 -0.666801,-0.813305 0.614849,-0.01724 1.148812,-0.02283 1.559814,-0.01072 z m 3.931708,0.706675 c 0.171931,0.09757 0.345724,0.196067 0.523619,0.297687 -0.270244,0.169834 -0.707197,0.390827 -1.239017,0.640905 -0.264186,-0.231105 -0.52539,-0.459973 -0.772196,-0.67894 0.588616,-0.115691 1.098071,-0.206549 1.487594,-0.259666 z m 4.063148,0.104603 c 0.173328,0.06421 0.349452,0.12967 0.528372,0.196532 -0.239492,0.211768 -0.65301,0.509799 -1.1647,0.856446 -0.294473,-0.186561 -0.583819,-0.370838 -0.858534,-0.548188 0.59458,-0.215448 1.109673,-0.391992 1.494862,-0.50478 z m 7.764497,-1.706994 c 0.178453,0.0079 0.360169,0.01584 0.545099,0.02423 -0.155157,0.265445 -0.446366,0.665116 -0.816832,1.143133 -0.331747,-0.08559 -0.656039,-0.170113 -0.964768,-0.252631 0.487556,-0.378759 0.912723,-0.696816 1.236501,-0.914735 z m 3.540415,-1.72989 c 0.177522,-0.0205 0.35877,-0.041 0.543002,-0.06183 -0.114155,0.285107 -0.334076,0.714075 -0.619975,1.231185 -0.33361,-0.03168 -0.6586,-0.06383 -0.968587,-0.09617 0.40816,-0.437607 0.767769,-0.809695 1.04556,-1.073223 z m 3.165523,-2.206053 c 0.196159,-0.05461 0.395579,-0.109775 0.600125,-0.165966 -0.07688,0.315206 -0.225512,0.767251 -0.414683,1.295633 -0.348986,0.0219 -0.689166,0.04193 -1.011127,0.0588 0.315904,-0.472115 0.596257,-0.878197 0.825452,-1.188477 z m 2.851248,-2.676146 c 0.195227,-0.08927 0.394182,-0.180037 0.59938,-0.272945 -0.03261,0.333983 -0.113689,0.796662 -0.219921,1.338337 -0.342929,0.0752 -0.677518,0.147328 -0.992305,0.212373 0.229241,-0.496856 0.437048,-0.933489 0.613079,-1.27776 z m 4.355523,-6.578624 c 0.172396,-0.159024 0.348986,-0.321356 0.531774,-0.488492 0.0615,0.3447 0.12021,0.812774 0.178453,1.349164 -0.313109,0.182973 -0.613545,0.356348 -0.899863,0.518872 0.0643,-0.526089 0.128133,-0.993628 0.189636,-1.379544 z m 1.358576,-3.705697 c 0.15143,-0.192384 0.308916,-0.391712 0.470363,-0.594939 0.112757,0.338036 0.24182,0.79437 0.38067,1.315616 -0.289346,0.237582 -0.567045,0.463514 -0.830671,0.674192 -0.01398,-0.528381 -0.0233,-0.999177 -0.01864,-1.394869 z m 0.788457,-3.813462 c 0.132792,-0.236835 0.273505,-0.485589 0.417013,-0.738373 0.16401,0.317069 0.355509,0.727279 0.563596,1.193672 -0.260924,0.294006 -0.512436,0.574075 -0.749831,0.834435 -0.09086,-0.476959 -0.170066,-0.914031 -0.230638,-1.289734 z m 0.21107,-4.072066 c 0.09459,-0.255612 0.193363,-0.519486 0.296335,-0.791555 0.21666,0.298385 0.477211,0.68801 0.76311,1.131865 -0.212001,0.335381 -0.418877,0.658866 -0.613964,0.95823 -0.170998,-0.47969 -0.32336,-0.920284 -0.445434,-1.29854 z m -0.422138,-3.992028 c 0.05265,-0.272666 0.108562,-0.554264 0.16727,-0.844737 0.261391,0.260085 0.580417,0.603927 0.93341,0.997503 -0.158418,0.367764 -0.312643,0.723403 -0.459413,1.053323 -0.24182,-0.442545 -0.462674,-0.854684 -0.641407,-1.206089 z m 0.718799,-6.438891 c -0.135122,0.510592 -0.276301,1.064678 -0.418876,1.621588 -0.434719,-0.400984 -0.859,-0.793936 -1.263619,-1.1714 0.0233,-0.470703 0.04846,-0.94687 0.07222,-1.418896 0.522827,0.31213 1.070581,0.643369 1.610135,0.968708 z m -2.073555,-3.956723 c -0.05172,0.523363 -0.102972,1.092596 -0.154691,1.666759 -0.498691,-0.332724 -0.988763,-0.660454 -1.452275,-0.973638 -0.05172,-0.468154 -0.103439,-0.940887 -0.156089,-1.408515 0.569141,0.228122 1.173227,0.475465 1.763055,0.715394 z m -2.665573,-3.572299 c 0.02796,0.519924 0.06756,1.087048 0.104369,1.661211 -0.55889,-0.2551 -1.108322,-0.506104 -1.627188,-0.745684 -0.120211,-0.445156 -0.242287,-0.893865 -0.362964,-1.33719 0.606555,0.132139 1.253181,0.278956 1.88555,0.421673 z M 49.7438,10.090572 c 0.109029,0.502405 0.2339,1.052707 0.3611,1.611286 -0.598028,-0.165781 -1.184874,-0.32937 -1.735611,-0.486205 -0.186374,-0.414543 -0.375079,-0.832054 -0.560614,-1.2438575 0.618157,0.034943 1.282768,0.077811 1.935032,0.1187665 z M 46.09375,7.5666618 c 0.180784,0.4665697 0.383932,0.9751388 0.591134,1.492598 C 46.065375,8.9922579 45.458307,8.9257691 44.889493,8.8602585 44.648603,8.4912372 44.406317,8.1203848 44.166826,7.7546343 44.780324,7.6910805 45.442791,7.6285521 46.09375,7.5666292 Z M 42.08507,5.6295981 c 0.254402,0.4349513 0.535268,0.9054022 0.825919,1.3897566 -0.632462,0.031684 -1.249781,0.061877 -1.827215,0.08727 C 40.786041,6.7803295 40.487889,6.4538341 40.192578,6.1308706 40.790141,5.9674669 41.442312,5.7971672 42.08507,5.629612 Z M 37.812111,4.3735884 c 0.319632,0.3918987 0.670622,0.815593 1.033912,1.2516951 -0.613078,0.1289712 -1.209756,0.2534226 -1.769159,0.3660394 -0.345258,-0.2790491 -0.690889,-0.558224 -1.033492,-0.8342584 0.55628,-0.2513725 1.165492,-0.518694 1.768739,-0.7834528 z M 33.443216,3.8034738 c 0.369953,0.3300691 0.774292,0.684665 1.19261,1.0490083 C 34.048979,5.0792998 33.47886,5.2984295 32.946202,5.4991966 32.569259,5.2849592 32.191711,5.0707684 31.817239,4.8586464 32.325435,4.5227532 32.885164,4.1619184 33.443216,3.8034738 Z M 29.064023,3.9821137 C 29.477309,4.2487222 29.929918,4.5351471 30.39031,4.8258818 29.865806,5.1329802 29.358029,5.4280481 28.879139,5.7027594 28.477503,5.5502585 28.073489,5.3967792 27.673204,5.2457227 28.109786,4.8438529 28.585926,4.4132256 29.064023,3.982137 Z M 24.75528,4.7958569 c 0.442173,0.1954601 0.922693,0.4030813 1.41146,0.6132603 -0.469477,0.3828131 -0.924371,0.7520207 -1.3521,1.0951453 -0.412354,-0.086385 -0.827222,-0.173468 -1.237758,-0.2592002 0.367623,-0.4594595 0.771264,-0.9533004 1.178398,-1.4491914 z m -4.095484,1.4756938 c 0.481125,0.127154 1.002648,0.2600855 1.530133,0.3944615 -0.401171,0.4511657 -0.789807,0.8854135 -1.158642,1.2927255 -0.43565,-0.022365 -0.874469,-0.04473 -1.30956,-0.066023 0.292141,-0.5144632 0.614429,-1.0674966 0.938069,-1.6211451 z m -3.765648,2.0980166 c 0.481126,0.046128 0.997848,0.092349 1.5176,0.138849 -0.324757,0.5053961 -0.641408,0.9958263 -0.941051,1.4537669 -0.416081,0.046127 -0.836168,0.092115 -1.252855,0.1384758 0.210137,-0.54863 0.44357,-1.1412819 0.676306,-1.7311196 z m -3.462557,2.6363457 c 0.491795,-0.02982 1.018442,-0.06463 1.546395,-0.09869 -0.24415,0.550304 -0.482431,1.085375 -0.709434,1.58655 -0.408626,0.110845 -0.821585,0.222577 -1.231702,0.334122 0.121609,-0.57804 0.259061,-1.202744 0.394647,-1.821986 z m -2.997087,3.169394 c 0.484946,-0.10656 1.00125,-0.223835 1.518905,-0.341345 -0.151429,0.566854 -0.299597,1.119887 -0.442174,1.640519 -0.394647,0.178034 -0.794094,0.357932 -1.190838,0.537005 0.03261,-0.584642 0.07362,-1.212953 0.114153,-1.836161 z M 7.9539074,17.750774 C 8.4259472,17.564539 8.9280864,17.362835 9.4298529,17.161467 9.3683494,17.736511 9.3077777,18.300196 9.2481378,18.830864 8.8781847,19.072453 8.5017549,19.31698 8.1277016,19.560525 8.0689936,18.982136 8.0116835,18.363242 7.9539074,17.750774 Z m -1.9368027,3.924234 c 0.4431051,-0.26167 0.911464,-0.542378 1.3805218,-0.823956 0.027956,0.565794 0.054515,1.120767 0.078277,1.647824 C 7.1399639,22.804158 6.800017,23.11319 6.4608621,23.421798 6.3150242,22.860755 6.1654587,22.263611 6.0172911,21.675008 Z m -1.2889654,4.169004 c 0.400705,-0.330814 0.8233556,-0.683169 1.2467982,-1.035715 0.1150862,0.563862 0.2273767,1.117338 0.3317464,1.64325 C 6.0210652,26.805052 5.7319053,27.163152 5.4433511,27.520543 5.210849,26.981511 4.9674441,26.407436 4.727953,25.844012 Z m -0.6539411,4.331016 c 0.3559751,-0.398748 0.7321252,-0.824665 1.1088345,-1.249762 0.2040799,0.546343 0.4039665,1.083967 0.5924376,1.596758 -0.2343658,0.408393 -0.4729716,0.822991 -0.7098069,1.236025 -0.3224277,-0.510507 -0.660837,-1.053677 -0.9914652,-1.583021 z m 0.048923,4.439755 c 0.2851532,-0.445948 0.5868468,-0.925126 0.88868,-1.40244 0.2870167,0.507865 0.5692341,1.007717 0.8357495,1.484677 C 5.6821433,35.134534 5.5130086,35.579 5.3458307,36.020651 4.9483873,35.567901 4.5311416,35.085135 4.1231212,34.614783 Z M 4.83167,39.009104 C 5.0441369,38.524833 5.2687179,38.00209 5.4941378,37.480759 5.8654888,37.951992 6.227987,38.41354 6.5723603,38.856249 6.4768433,39.312074 6.3799287,39.774068 6.283946,40.232447 5.8118595,39.837193 5.3179207,39.418969 4.8317165,39.009104 Z m 1.4371796,4.221832 c 0.1323259,-0.506016 0.2711748,-1.053411 0.4109556,-1.601865 0.436582,0.402802 0.8637988,0.79772 1.2700483,1.176679 -0.023297,0.462442 -0.04706,0.930321 -0.069891,1.394332 -0.523618,-0.31241 -1.0717917,-0.643895 -1.6109263,-0.969146 z m 2.0455523,3.977854 c 0.055447,-0.529965 0.1108927,-1.105541 0.166805,-1.685071 0.4973866,0.330348 0.9862467,0.655958 1.449294,0.967385 0.049855,0.473172 0.09971,0.951451 0.1495651,1.424711 C 9.5096211,47.690395 8.9046499,47.446078 8.3143556,47.20879 Z m 2.6875191,3.599593 c -0.02796,-0.520278 -0.06383,-1.087048 -0.100642,-1.660419 0.550737,0.250674 1.091175,0.497564 1.601422,0.73371 0.121143,0.449582 0.242752,0.903026 0.363896,1.351279 -0.599707,-0.133816 -1.239017,-0.281472 -1.86449,-0.424561 z m 3.191755,3.117093 c -0.108564,-0.510153 -0.233434,-1.068116 -0.359703,-1.633739 0.588618,0.1614 1.167263,0.320844 1.712408,0.47449 0.1915,0.42773 0.383931,0.858651 0.574779,1.283398 -0.617784,-0.03634 -1.279461,-0.08107 -1.927298,-0.124172 z m 3.662443,2.540987 c -0.184976,-0.477836 -0.392784,-1.001548 -0.604459,-1.533009 0.621279,0.06737 1.230863,0.134283 1.800936,0.20012 0.24881,0.381136 0.499624,0.764788 0.746756,1.142778 -0.617738,0.06472 -1.28631,0.127666 -1.943233,0.190102 z m 4.019863,1.920691 c -0.252071,-0.43593 -0.530142,-0.907868 -0.818604,-1.393633 0.617832,-0.02982 1.222291,-0.05801 1.789335,-0.08065 0.298199,0.329557 0.596258,0.659309 0.892966,0.986055 -0.591133,0.158233 -1.23212,0.323826 -1.863697,0.488232 z m 4.220076,1.249584 c -0.312643,-0.385656 -0.653941,-0.800361 -1.006468,-1.226339 0.610841,-0.132605 1.206773,-0.260691 1.764359,-0.377128 0.341997,0.272619 0.683621,0.545107 1.023242,0.815067 -0.560522,0.253142 -1.174485,0.522127 -1.781133,0.788386 z m 4.420567,0.551622 c -0.368555,-0.327786 -0.770006,-0.67947 -1.184456,-1.04091 0.5697,-0.219131 1.123885,-0.430805 1.644474,-0.626112 0.374613,0.21517 0.748946,0.430385 1.121229,0.643636 -0.49748,0.326667 -1.041367,0.676035 -1.581247,1.023386 z m 4.351609,-0.109868 c -0.411421,-0.265444 -0.861562,-0.550475 -1.320276,-0.83998 0.547754,-0.318561 1.076918,-0.624704 1.574398,-0.908394 0.397443,0.149613 0.796191,0.299877 1.191258,0.447905 -0.451958,0.412959 -0.948365,0.856711 -1.44538,1.300473 z m 4.322023,-0.839626 c -0.451027,-0.196858 -0.941936,-0.406948 -1.441094,-0.620394 0.483642,-0.393576 0.952233,-0.772713 1.393801,-1.124993 0.415615,0.0875 0.834538,0.175565 1.248522,0.262323 -0.375078,0.470086 -0.787571,0.976102 -1.201229,1.483088 z m 4.0727,-1.485026 c -0.469058,-0.123334 -0.975064,-0.252864 -1.487175,-0.383605 0.410024,-0.458202 0.808306,-0.899854 1.183571,-1.312095 0.416547,0.02097 0.836635,0.0424 1.252855,0.06337 -0.296336,0.51711 -0.622071,1.074192 -0.949251,1.632333 z m 3.83703,-2.103478 c -0.492262,-0.05079 -1.022311,-0.100828 -1.556786,-0.150823 0.326155,-0.506454 0.644436,-0.998031 0.944592,-1.457024 0.425865,-0.04613 0.855132,-0.09212 1.281184,-0.13815 -0.207342,0.552945 -0.43798,1.150708 -0.66899,1.745997 z m 3.429148,-2.640222 c -0.490956,0.02796 -1.017231,0.06164 -1.545602,0.0958 0.240889,-0.543612 0.475487,-1.072166 0.698997,-1.568145 0.411887,-0.110846 0.82848,-0.222391 1.242464,-0.333517 -0.121608,0.57346 -0.25906,1.192088 -0.396045,1.805874 z m 3.008176,-3.128625 c -0.489745,0.1067 -1.012013,0.223929 -1.535632,0.340832 0.152362,-0.570025 0.302858,-1.126582 0.446833,-1.649412 0.397443,-0.177942 0.79964,-0.357979 1.199925,-0.53736 -0.03261,0.587987 -0.07222,1.219825 -0.110893,1.845936 z m 2.485769,-3.578817 c -0.466029,0.1826 -0.960853,0.380018 -1.456563,0.577071 0.0629,-0.587722 0.124871,-1.163913 0.186375,-1.706024 0.364362,-0.23842 0.733849,-0.479514 1.101053,-0.71962 0.05684,0.590625 0.113223,1.223343 0.169135,1.848573 z m 1.902044,-3.92423 c -0.44031,0.256033 -0.905407,0.530054 -1.371902,0.804942 -0.02796,-0.582704 -0.05451,-1.154319 -0.07641,-1.694581 0.330815,-0.29955 0.665124,-0.602078 0.998734,-0.904345 0.14677,0.574868 0.298666,1.189181 0.449628,1.793984 z M 59.244096,38.1687 c -0.406296,0.332492 -0.836635,0.68924 -1.267812,1.046366 -0.118814,-0.571433 -0.234366,-1.13283 -0.341531,-1.665874 0.290277,-0.36152 0.584749,-0.727457 0.878382,-1.092243 0.237627,0.549599 0.48667,1.136352 0.730821,1.711751 z M 59.8958,33.787056 c -0.351781,0.394369 -0.724437,0.818147 -1.098024,1.241924 -0.198024,-0.531371 -0.392319,-1.053854 -0.575665,-1.552912 0.233901,-0.409698 0.471248,-0.824484 0.706778,-1.237872 0.314974,0.498883 0.643692,1.029551 0.966911,1.54886 z M 58.959082,30.76849 c -0.284687,-0.503635 -0.561918,-0.995915 -0.825917,-1.468556 0.168668,-0.441288 0.340133,-0.889029 0.509919,-1.333317 0.391853,0.447111 0.804392,0.92389 1.208545,1.389314 -0.285618,0.44632 -0.589035,0.929788 -0.892547,1.412559 z" />
<path fill="#77a0a9" d="m 16.957878,35.014125 c 4.637328,4.046538 21.942054,1.089631 20.043526,10.364307 -0.489585,2.391604 -1.878399,3.451027 -3.664359,3.972794 C 32.931173,49.379512 32.388851,49.5 31.975767,49.5 c -9.619852,0 -17.41782,-7.79855 -17.41782,-17.41781 0,-0.173865 0.0032,-0.346973 0.0083,-0.519614 0.48533,1.08451 1.266294,2.469891 2.391372,3.451491 z" />
<path fill="#6f7d8c" d="m 39.685198,29.607351 c 3.224601,2.834089 6.284714,6.77283 4.990307,12.538334 -0.292778,1.30424 -1.295452,2.761681 -2.348883,4.004278 -0.729966,0.531838 -1.502027,1.009309 -2.311508,1.424498 0.585264,-0.866351 1.265072,-2.383221 1.354303,-3.90044 0.12474,-2.121115 -0.714197,-5.06545 -4.241828,-7.236273 -4.865509,-2.99445 -15.594944,-3.649393 -18.994627,-5.957469 -1.849235,-1.255463 -2.374788,-2.737642 -2.533459,-4.264058 1.537824,-4.35102 4.750371,-7.910426 8.864316,-9.902148 -1.152092,1.033114 -2.557724,2.336423 -2.182517,3.998111 1.216517,4.023373 10.448702,3.181004 17.403833,9.294468 z" />
<path fill="#6c596e" d="m 31.851371,14.5 c 9.715306,0 17.590682,7.875967 17.590682,17.59127 0,1.991196 -0.296031,3.985305 -0.905685,5.769983 0.351909,-2.657082 0.05676,-5.388962 -2.19842,-8.459197 -4.977853,-6.777024 -17.295225,-7.246693 -17.363093,-12.675121 -0.01298,-1.041728 0.761518,-1.732526 1.673268,-2.184735 0.39779,-0.02689 0.79889,-0.04179 1.203541,-0.04179 z" />
</svg>
